<?xml version="1.0" encoding="UTF-8" standalone="no"?>
<!-- Created with Inkscape (http://www.inkscape.org/) -->

<svg
   xmlns:dc="http://purl.org/dc/elements/1.1/"
   xmlns:cc="http://creativecommons.org/ns#"
   xmlns:rdf="http://www.w3.org/1999/02/22-rdf-syntax-ns#"
   xmlns:svg="http://www.w3.org/2000/svg"
   xmlns="http://www.w3.org/2000/svg"
   xmlns:sodipodi="http://sodipodi.sourceforge.net/DTD/sodipodi-0.dtd"
   xmlns:inkscape="http://www.inkscape.org/namespaces/inkscape"
   width="500"
   height="500"
   viewBox="0 0 132.29166 132.29167"
   version="1.1"
   id="svg8"
   inkscape:version="0.92.5 (2060ec1f9f, 2020-04-08)"
   sodipodi:docname="indicator-card.svg">
  <defs
     id="defs2" />
  <sodipodi:namedview
     id="base"
     pagecolor="#ffffff"
     bordercolor="#666666"
     borderopacity="1.0"
     inkscape:pageopacity="0"
     inkscape:pageshadow="2"
     inkscape:zoom="1.4142136"
     inkscape:cx="237.8628"
     inkscape:cy="303.38955"
     inkscape:document-units="mm"
     inkscape:current-layer="svg8"
     showgrid="false"
     units="px"
     inkscape:window-width="2488"
     inkscape:window-height="1376"
     inkscape:window-x="1992"
     inkscape:window-y="27"
     inkscape:window-maximized="1"
     inkscape:snap-bbox="true"
     inkscape:bbox-paths="true"
     inkscape:bbox-nodes="true"
     inkscape:snap-bbox-edge-midpoints="true"
     inkscape:snap-bbox-midpoints="true"
     inkscape:snap-nodes="false"
     inkscape:object-paths="false"
     inkscape:snap-intersection-paths="false"
     inkscape:snap-smooth-nodes="false"
     inkscape:snap-midpoints="false"
     inkscape:snap-object-midpoints="true"
     inkscape:snap-center="false"
     inkscape:snap-text-baseline="false"
     inkscape:snap-page="true"
     inkscape:snap-grids="true"
     showguides="true"
     inkscape:guide-bbox="true"
     inkscape:object-nodes="false" />
  <metadata
     id="metadata5">
    <rdf:RDF>
      <cc:Work
         rdf:about="">
        <dc:format>image/svg+xml</dc:format>
        <dc:type
           rdf:resource="http://purl.org/dc/dcmitype/StillImage" />
        <dc:title></dc:title>
      </cc:Work>
    </rdf:RDF>
  </metadata>
  <g
     inkscape:label="Layer 1"
     inkscape:groupmode="layer"
     id="layer1"
     transform="translate(0,-164.70832)"
     style="display:inline">
    <rect
       style="opacity:1;fill:#b29fdb;fill-opacity:1;fill-rule:nonzero;stroke:#ffffff;stroke-width:0;stroke-linecap:round;stroke-linejoin:round;stroke-miterlimit:4;stroke-dasharray:none;stroke-opacity:1;paint-order:normal"
       id="rect834"
       width="132.29167"
       height="132.29167"
       x="4.2682672e-07"
       y="164.70831"
       rx="0"
       ry="0" />
  </g>
  <g
     inkscape:groupmode="layer"
     id="layer2"
     inkscape:label="Layer 2">
    <g
       style="fill:#000000"
       id="g1064"
       transform="matrix(1.0469957,0,0,1.0469957,53.755504,67.934695)">
      <path
         id="path1050"
         d="M 0,0 H 24 V 24 H 0 Z"
         inkscape:connector-curvature="0"
         style="fill:none" />
    </g>
    <g
       id="g1143"
       transform="translate(6.5718394,12.761785)">
      <path
         inkscape:connector-curvature="0"
         d="M 14.07,5.32 C 16.26,6 18,7.74 18.68,9.93 18.87,10.56 19.44,11 20.09,11 h 0.04 c 1,0 1.72,-0.96 1.43,-1.91 C 20.59,5.91 18.08,3.4 14.9,2.43 13.96,2.14 13,2.86 13,3.86 V 3.9 c 0,0.66 0.44,1.23 1.07,1.42 z m 4.61,8.75 C 18,16.27 16.26,18 14.07,18.68 13.44,18.87 13,19.44 13,20.09 v 0.04 c 0,1 0.96,1.72 1.91,1.43 3.18,-0.97 5.69,-3.48 6.66,-6.66 0.29,-0.95 -0.43,-1.91 -1.42,-1.91 H 20.1 C 19.44,13 18.87,13.44 18.68,14.07 Z M 11,20.11 C 11,19.44 10.55,18.87 9.91,18.67 7.07,17.78 5,15.13 5,12 5,8.87 7.07,6.22 9.91,5.33 10.55,5.13 11,4.56 11,3.89 V 3.88 C 11,2.88 10.03,2.14 9.07,2.44 4.98,3.69 2,7.5 2,12 c 0,4.5 2.98,8.31 7.07,9.56 0.96,0.3 1.93,-0.44 1.93,-1.45 z"
         id="path1052"
         style="fill:#000000"
         transform="matrix(1.0469957,0,0,1.0469957,53.755504,67.934694)" />
      <g
         transform="matrix(1.6091172,0,0,1.6091172,14.392033,29.315882)"
         id="g1089"
         style="fill:#000000">
        <g
           id="g1070">
          <rect
             style="fill:none"
             y="0"
             x="0"
             height="24"
             width="24"
             id="rect1066" />
          <rect
             style="fill:none"
             y="0"
             x="0"
             height="24"
             width="24"
             id="rect1068" />
        </g>
        <g
           id="g1074">
          <path
             inkscape:connector-curvature="0"
             d="M 8,2 C 6.9,2 6,2.9 6,4 l 0.01,3.18 c 0,0.53 0.21,1.03 0.58,1.41 L 10,12 6.59,15.43 C 6.22,15.8 6.01,16.31 6.01,16.84 L 6,20 c 0,1.1 0.9,2 2,2 h 8 c 1.1,0 2,-0.9 2,-2 V 16.84 C 18,16.31 17.79,15.8 17.42,15.43 L 14,12 17.41,8.6 C 17.79,8.22 18,7.71 18,7.18 V 4 C 18,2.9 17.1,2 16,2 Z m 8,14.91 V 19 c 0,0.55 -0.45,1 -1,1 H 9 C 8.45,20 8,19.55 8,19 V 16.91 C 8,16.64 8.11,16.39 8.29,16.2 l 3.71,-3.7 3.71,3.71 c 0.18,0.18 0.29,0.44 0.29,0.7 z"
             id="path1072" />
        </g>
      </g>
      <g
         transform="matrix(2.1560462,0,0,2.1560462,53.010846,16.189586)"
         id="g1108"
         style="fill:#000000">
        <path
           style="fill:none"
           inkscape:connector-curvature="0"
           d="M 0,0 H 24 V 24 H 0 Z"
           id="path1091" />
        <path
           inkscape:connector-curvature="0"
           d="m 19.46,10 a 1,1 0 0 0 -0.07,1 7.55,7.55 0 0 1 0.52,1.81 8,8 0 0 1 -0.69,4.73 1,1 0 0 1 -0.89,0.53 H 5.68 A 1,1 0 0 1 4.79,17.53 8,8 0 0 1 13,6.06 7.69,7.69 0 0 1 15.11,6.62 1,1 0 0 0 16.11,6.55 1,1 0 0 0 15.94,4.79 10,10 0 0 0 3.35,19 2,2 0 0 0 5.07,20 H 18.92 A 2,2 0 0 0 20.66,19 10,10 0 0 0 21.21,10.11 1,1 0 0 0 19.46,10 Z"
           id="path1093" />
        <path
           inkscape:connector-curvature="0"
           d="m 10.59,12.59 a 2.0011122,2.0011122 0 0 0 2.83,2.83 l 5.66,-8.49 z"
           id="path1095" />
      </g>
    </g>
  </g>
</svg>
