<?xml version="1.0" encoding="UTF-8" standalone="no"?>
<!-- Created with Inkscape (http://www.inkscape.org/) -->

<svg
   xmlns:dc="http://purl.org/dc/elements/1.1/"
   xmlns:cc="http://creativecommons.org/ns#"
   xmlns:rdf="http://www.w3.org/1999/02/22-rdf-syntax-ns#"
   xmlns:svg="http://www.w3.org/2000/svg"
   xmlns="http://www.w3.org/2000/svg"
   xmlns:sodipodi="http://sodipodi.sourceforge.net/DTD/sodipodi-0.dtd"
   xmlns:inkscape="http://www.inkscape.org/namespaces/inkscape"
   width="500"
   height="500"
   viewBox="0 0 132.29166 132.29167"
   version="1.1"
   id="svg8"
   inkscape:version="0.92.5 (2060ec1f9f, 2020-04-08)"
   sodipodi:docname="indicator-card.svg">
  <defs
     id="defs2" />
  <sodipodi:namedview
     id="base"
     pagecolor="#ffffff"
     bordercolor="#666666"
     borderopacity="1.0"
     inkscape:pageopacity="0"
     inkscape:pageshadow="2"
     inkscape:zoom="1.4142136"
     inkscape:cx="237.8628"
     inkscape:cy="303.38955"
     inkscape:document-units="mm"
     inkscape:current-layer="layer3"
     showgrid="false"
     units="px"
     inkscape:window-width="2488"
     inkscape:window-height="1376"
     inkscape:window-x="1992"
     inkscape:window-y="27"
     inkscape:window-maximized="1"
     inkscape:snap-bbox="true"
     inkscape:bbox-paths="true"
     inkscape:bbox-nodes="true"
     inkscape:snap-bbox-edge-midpoints="true"
     inkscape:snap-bbox-midpoints="true"
     inkscape:snap-nodes="false"
     inkscape:object-paths="false"
     inkscape:snap-intersection-paths="false"
     inkscape:snap-smooth-nodes="false"
     inkscape:snap-midpoints="false"
     inkscape:snap-object-midpoints="true"
     inkscape:snap-center="false"
     inkscape:snap-text-baseline="false"
     inkscape:snap-page="true"
     inkscape:snap-grids="true"
     showguides="true"
     inkscape:guide-bbox="true"
     inkscape:object-nodes="false" />
  <metadata
     id="metadata5">
    <rdf:RDF>
      <cc:Work
         rdf:about="">
        <dc:format>image/svg+xml</dc:format>
        <dc:type
           rdf:resource="http://purl.org/dc/dcmitype/StillImage" />
        <dc:title></dc:title>
      </cc:Work>
    </rdf:RDF>
  </metadata>
  <g
     inkscape:label="Layer 1"
     inkscape:groupmode="layer"
     id="layer1"
     transform="translate(0,-164.70832)"
     style="display:inline">
    <rect
       style="opacity:1;fill:#b29fdb;fill-opacity:1;fill-rule:nonzero;stroke:#ffffff;stroke-width:0;stroke-linecap:round;stroke-linejoin:round;stroke-miterlimit:4;stroke-dasharray:none;stroke-opacity:1;paint-order:normal"
       id="rect834"
       width="132.29167"
       height="132.29167"
       x="4.2682672e-07"
       y="164.70831"
       rx="0"
       ry="0" />
    <rect
       style="opacity:1;fill:#b29fdb;fill-opacity:1;fill-rule:nonzero;stroke:none;stroke-width:0;stroke-linecap:round;stroke-linejoin:round;stroke-miterlimit:4;stroke-dasharray:none;stroke-opacity:1;paint-order:normal"
       id="rect1328"
       width="97.353363"
       height="12.397058"
       x="17.319418"
       y="185.24416" />
  </g>
  <g
     inkscape:groupmode="layer"
     id="layer2"
     inkscape:label="Layer 2">
    <g
       style="fill:#000000"
       id="g1064"
       transform="matrix(1.0469957,0,0,1.0469957,53.755504,67.934695)">
      <path
         id="path1050"
         d="M 0,0 H 24 V 24 H 0 Z"
         inkscape:connector-curvature="0"
         style="fill:none" />
    </g>
    <rect
       style="opacity:1;fill:#8462a7;fill-opacity:1;fill-rule:nonzero;stroke:none;stroke-width:0;stroke-linecap:round;stroke-linejoin:round;stroke-miterlimit:4;stroke-dasharray:none;stroke-opacity:1;paint-order:normal"
       id="rect1330"
       width="103.25768"
       height="13.673225"
       x="14.516992"
       y="14.516994"
       ry="6.8366127" />
    <rect
       style="opacity:1;fill:#8462a7;fill-opacity:1;fill-rule:nonzero;stroke:none;stroke-width:0;stroke-linecap:round;stroke-linejoin:round;stroke-miterlimit:4;stroke-dasharray:none;stroke-opacity:1;paint-order:normal"
       id="rect1330-3"
       width="103.25768"
       height="13.673225"
       x="14.516992"
       y="104.10145"
       ry="6.8366127" />
    <rect
       style="opacity:1;fill:#8462a7;fill-opacity:1;fill-rule:nonzero;stroke:none;stroke-width:0;stroke-linecap:round;stroke-linejoin:round;stroke-miterlimit:4;stroke-dasharray:none;stroke-opacity:1;paint-order:normal"
       id="rect1330-1"
       width="103.25768"
       height="13.673225"
       x="14.516992"
       y="81.705338"
       ry="6.8366127" />
    <rect
       style="opacity:1;fill:#8462a7;fill-opacity:1;fill-rule:nonzero;stroke:none;stroke-width:0;stroke-linecap:round;stroke-linejoin:round;stroke-miterlimit:4;stroke-dasharray:none;stroke-opacity:1;paint-order:normal"
       id="rect1330-1-2"
       width="103.25768"
       height="13.673225"
       x="14.516992"
       y="59.309219"
       ry="6.8366127" />
    <rect
       style="opacity:1;fill:#8462a7;fill-opacity:1;fill-rule:nonzero;stroke:none;stroke-width:0;stroke-linecap:round;stroke-linejoin:round;stroke-miterlimit:4;stroke-dasharray:none;stroke-opacity:1;paint-order:normal"
       id="rect1330-1-2-1"
       width="103.25768"
       height="13.673225"
       x="14.516992"
       y="36.913105"
       ry="6.8366127" />
  </g>
  <g
     inkscape:groupmode="layer"
     id="layer3"
     inkscape:label="Layer 3">
    <g
       style="fill:#000000"
       id="g1259"
       transform="matrix(0.396875,0,0,0.39687499,61.383336,61.383329)">
      <path
         id="path1245"
         d="M 0,0 H 24 V 24 H 0 Z"
         inkscape:connector-curvature="0"
         style="fill:none" />
      <path
         id="path1247"
         d="M 12,2 C 6.48,2 2,6.48 2,12 2,17.52 6.48,22 12,22 17.52,22 22,17.52 22,12 22,6.48 17.52,2 12,2 Z m 0,18 C 7.59,20 4,16.41 4,12 4,7.59 7.59,4 12,4 c 4.41,0 8,3.59 8,8 0,4.41 -3.59,8 -8,8 z M 15.88,8.29 10,14.17 8.12,12.29 c -0.39,-0.39 -1.02,-0.39 -1.41,0 -0.39,0.39 -0.39,1.02 0,1.41 l 2.59,2.59 c 0.39,0.39 1.02,0.39 1.41,0 L 17.3,9.7 c 0.39,-0.39 0.39,-1.02 0,-1.41 -0.39,-0.39 -1.03,-0.39 -1.42,0 z"
         inkscape:connector-curvature="0"
         style="fill:#ffffff;fill-opacity:1" />
    </g>
    <g
       style="fill:#000000"
       id="g1281"
       transform="matrix(0.396875,0,0,0.396875,61.383333,16.591107)">
      <g
         id="g1263">
        <path
           id="path1261"
           d="M 0,0 H 24 V 24 H 0 Z"
           inkscape:connector-curvature="0"
           style="fill:none" />
      </g>
      <g
         id="g1267">
        <path
           id="path1265"
           d="M 12,2 C 6.48,2 2,6.48 2,12 2,17.52 6.48,22 12,22 17.52,22 22,17.52 22,12 22,6.48 17.52,2 12,2 Z m 0,16.5 c -0.83,0 -1.5,-0.67 -1.5,-1.5 h 3 c 0,0.83 -0.67,1.5 -1.5,1.5 z M 16,16 H 8 C 7.45,16 7,15.55 7,15 v 0 C 7,14.45 7.45,14 8,14 V 11 C 8,9.14 9.28,7.59 11,7.14 V 6.5 c 0,-0.55 0.45,-1 1,-1 0.55,0 1,0.45 1,1 v 0.64 c 1.72,0.45 3,2 3,3.86 v 3 c 0.55,0 1,0.45 1,1 v 0 c 0,0.55 -0.45,1 -1,1 z"
           inkscape:connector-curvature="0"
           style="fill:#ffffff;fill-opacity:1" />
      </g>
    </g>
    <g
       style="fill:#000000"
       id="g1294"
       transform="matrix(0.396875,0,0,0.396875,61.383333,83.77945)">
      <path
         id="path1283"
         d="m 11,15 h 2 v 2 h -2 z m 0,-8 h 2 v 6 H 11 Z M 11.99,2 C 6.47,2 2,6.48 2,12 2,17.52 6.47,22 11.99,22 17.52,22 22,17.52 22,12 22,6.48 17.52,2 11.99,2 Z M 12,20 C 7.58,20 4,16.42 4,12 4,7.58 7.58,4 12,4 c 4.42,0 8,3.58 8,8 0,4.42 -3.58,8 -8,8 z"
         inkscape:connector-curvature="0"
         style="fill:#ffffff;fill-opacity:1" />
    </g>
    <g
       style="fill:#000000"
       id="g1310"
       transform="matrix(0.396875,0,0,0.396875,61.383333,38.987218)">
      <path
         id="path1296"
         d="M 0,0 H 24 V 24 H 0 Z"
         inkscape:connector-curvature="0"
         style="fill:none" />
      <path
         id="path1298"
         d="M 19.66,3.99 C 17.02,2.19 13.76,3.03 12,5.09 10.24,3.03 6.98,2.18 4.34,3.99 2.94,4.95 2.06,6.57 2,8.28 c -0.14,3.88 3.3,6.99 8.55,11.76 l 0.1,0.09 c 0.76,0.69 1.93,0.69 2.69,-0.01 l 0.11,-0.1 C 18.7,15.26 22.13,12.15 22,8.27 21.94,6.57 21.06,4.95 19.66,3.99 Z M 12.1,18.55 12,18.65 11.9,18.55 C 7.14,14.24 4,11.39 4,8.5 4,6.5 5.5,5 7.5,5 c 1.54,0 3.04,0.99 3.57,2.36 h 1.87 C 13.46,5.99 14.96,5 16.5,5 c 2,0 3.5,1.5 3.5,3.5 0,2.89 -3.14,5.74 -7.9,10.05 z"
         inkscape:connector-curvature="0"
         style="fill:#ffffff;fill-opacity:1" />
    </g>
    <g
       style="fill:#000000"
       id="g1326"
       transform="matrix(0.396875,0,0,0.396875,61.383333,106.17556)">
      <path
         id="path1312"
         d="M 0,0 H 24 V 24 H 0 Z"
         inkscape:connector-curvature="0"
         style="fill:none" />
      <path
         id="path1314"
         d="m 11,7 h 2 v 2 h -2 z m 0,4 h 2 v 6 H 11 Z M 12,2 C 6.48,2 2,6.48 2,12 2,17.52 6.48,22 12,22 17.52,22 22,17.52 22,12 22,6.48 17.52,2 12,2 Z m 0,18 C 7.59,20 4,16.41 4,12 4,7.59 7.59,4 12,4 c 4.41,0 8,3.59 8,8 0,4.41 -3.59,8 -8,8 z"
         inkscape:connector-curvature="0"
         style="fill:#ffffff;fill-opacity:1" />
    </g>
  </g>
</svg>
