<?xml version="1.0" encoding="UTF-8" standalone="no"?>
<!DOCTYPE svg PUBLIC "-//W3C//DTD SVG 1.1//EN"
 "http://www.w3.org/Graphics/SVG/1.1/DTD/svg11.dtd">
<!-- Generated by graphviz version 2.47.0 (20210316.0004)
 -->
<!-- Title: dependencies Pages: 1 -->
<svg width="1145pt" height="284pt"
 viewBox="0.00 0.00 1145.00 284.00" xmlns="http://www.w3.org/2000/svg" xmlns:xlink="http://www.w3.org/1999/xlink">
<g id="graph0" class="graph" transform="scale(1 1) rotate(0) translate(4 280)">
<title>dependencies</title>
<polygon fill="white" stroke="transparent" points="-4,4 -4,-280 1141,-280 1141,4 -4,4"/>
<text text-anchor="start" x="547.51" y="-42.4" font-family="sans-serif" font-weight="bold" font-size="14.00">Legend</text>
<polygon fill="#ffffb3" stroke="transparent" points="334.5,-10 334.5,-30 354.5,-30 354.5,-10 334.5,-10"/>
<text text-anchor="start" x="358.13" y="-15.4" font-family="sans-serif" font-size="14.00"> &#160;Declarations</text>
<polygon fill="#8dd3c7" stroke="transparent" points="447.5,-10 447.5,-30 467.5,-30 467.5,-10 447.5,-10"/>
<text text-anchor="start" x="471.23" y="-15.4" font-family="sans-serif" font-size="14.00"> &#160;Module</text>
<polygon fill="#80b1d3" stroke="transparent" points="533.5,-10 533.5,-30 553.5,-30 553.5,-10 533.5,-10"/>
<text text-anchor="start" x="557.28" y="-15.4" font-family="sans-serif" font-size="14.00"> &#160;Bootstrap</text>
<polygon fill="#fdb462" stroke="transparent" points="630.5,-10 630.5,-30 650.5,-30 650.5,-10 630.5,-10"/>
<text text-anchor="start" x="654.17" y="-15.4" font-family="sans-serif" font-size="14.00"> &#160;Providers</text>
<polygon fill="#fb8072" stroke="transparent" points="726.5,-10 726.5,-30 746.5,-30 746.5,-10 726.5,-10"/>
<text text-anchor="start" x="750.23" y="-15.4" font-family="sans-serif" font-size="14.00"> &#160;Exports</text>
<g id="clust1" class="cluster">
<title>cluster_SbElementModule</title>
<polygon fill="none" stroke="black" stroke-dasharray="1,5" points="8,-70 8,-268 1129,-268 1129,-70 8,-70"/>
</g>
<g id="clust2" class="cluster">
<title>cluster_SbElementModule_declarations</title>
<polygon fill="none" stroke="black" points="286,-78 286,-130 1102,-130 1102,-78 286,-78"/>
</g>
<g id="clust9" class="cluster">
<title>cluster_SbElementModule_imports</title>
<polygon fill="none" stroke="black" points="68,-78 68,-130 278,-130 278,-78 68,-78"/>
</g>
<g id="clust10" class="cluster">
<title>cluster_SbElementModule_exports</title>
<polygon fill="none" stroke="black" points="16,-208 16,-260 1121,-260 1121,-208 16,-208"/>
</g>
<!-- AlertBoxComponent -->
<g id="node1" class="node">
<title>AlertBoxComponent</title>
<polygon fill="#ffffb3" stroke="black" points="1093.93,-122 960.07,-122 960.07,-86 1093.93,-86 1093.93,-122"/>
<text text-anchor="middle" x="1027" y="-99.8" font-family="Times,serif" font-size="14.00">AlertBoxComponent</text>
</g>
<!-- SbElementModule -->
<g id="node7" class="node">
<title>SbElementModule</title>
<polygon fill="#8dd3c7" stroke="black" points="571.49,-187 568.49,-191 547.49,-191 544.49,-187 450.51,-187 450.51,-151 571.49,-151 571.49,-187"/>
<text text-anchor="middle" x="511" y="-164.8" font-family="Times,serif" font-size="14.00">SbElementModule</text>
</g>
<!-- AlertBoxComponent&#45;&gt;SbElementModule -->
<g id="edge1" class="edge">
<title>AlertBoxComponent&#45;&gt;SbElementModule</title>
<path fill="none" stroke="black" d="M968.41,-122.22C968.41,-140.83 968.41,-167 968.41,-167 968.41,-167 581.74,-167 581.74,-167"/>
<polygon fill="black" stroke="black" points="581.74,-163.5 571.74,-167 581.74,-170.5 581.74,-163.5"/>
</g>
<!-- AlertComponent -->
<g id="node2" class="node">
<title>AlertComponent</title>
<polygon fill="#ffffb3" stroke="black" points="942.1,-122 831.9,-122 831.9,-86 942.1,-86 942.1,-122"/>
<text text-anchor="middle" x="887" y="-99.8" font-family="Times,serif" font-size="14.00">AlertComponent</text>
</g>
<!-- AlertComponent&#45;&gt;SbElementModule -->
<g id="edge2" class="edge">
<title>AlertComponent&#45;&gt;SbElementModule</title>
<path fill="none" stroke="black" d="M838.58,-122.03C838.58,-139.06 838.58,-162 838.58,-162 838.58,-162 581.85,-162 581.85,-162"/>
<polygon fill="black" stroke="black" points="581.85,-158.5 571.85,-162 581.85,-165.5 581.85,-158.5"/>
</g>
<!-- CardComponent -->
<g id="node3" class="node">
<title>CardComponent</title>
<polygon fill="#ffffb3" stroke="black" points="814.05,-122 705.95,-122 705.95,-86 814.05,-86 814.05,-122"/>
<text text-anchor="middle" x="760" y="-99.8" font-family="Times,serif" font-size="14.00">CardComponent</text>
</g>
<!-- CardComponent&#45;&gt;SbElementModule -->
<g id="edge3" class="edge">
<title>CardComponent&#45;&gt;SbElementModule</title>
<path fill="none" stroke="black" d="M710.35,-122.24C710.35,-137.57 710.35,-157 710.35,-157 710.35,-157 581.62,-157 581.62,-157"/>
<polygon fill="black" stroke="black" points="581.62,-153.5 571.62,-157 581.62,-160.5 581.62,-153.5"/>
</g>
<!-- ContainerComponent -->
<g id="node4" class="node">
<title>ContainerComponent</title>
<polygon fill="#ffffb3" stroke="black" points="687.04,-122 550.96,-122 550.96,-86 687.04,-86 687.04,-122"/>
<text text-anchor="middle" x="619" y="-99.8" font-family="Times,serif" font-size="14.00">ContainerComponent</text>
</g>
<!-- ContainerComponent&#45;&gt;SbElementModule -->
<g id="edge4" class="edge">
<title>ContainerComponent&#45;&gt;SbElementModule</title>
<path fill="none" stroke="black" d="M561.11,-122.11C561.11,-122.11 561.11,-140.99 561.11,-140.99"/>
<polygon fill="black" stroke="black" points="557.61,-140.99 561.11,-150.99 564.61,-140.99 557.61,-140.99"/>
</g>
<!-- GridComponent -->
<g id="node5" class="node">
<title>GridComponent</title>
<polygon fill="#ffffb3" stroke="black" points="532.49,-122 425.51,-122 425.51,-86 532.49,-86 532.49,-122"/>
<text text-anchor="middle" x="479" y="-99.8" font-family="Times,serif" font-size="14.00">GridComponent</text>
</g>
<!-- GridComponent&#45;&gt;SbElementModule -->
<g id="edge5" class="edge">
<title>GridComponent&#45;&gt;SbElementModule</title>
<path fill="none" stroke="black" d="M491.5,-122.11C491.5,-122.11 491.5,-140.99 491.5,-140.99"/>
<polygon fill="black" stroke="black" points="488,-140.99 491.5,-150.99 495,-140.99 488,-140.99"/>
</g>
<!-- TableComponent -->
<g id="node6" class="node">
<title>TableComponent</title>
<polygon fill="#ffffb3" stroke="black" points="407.7,-122 294.3,-122 294.3,-86 407.7,-86 407.7,-122"/>
<text text-anchor="middle" x="351" y="-99.8" font-family="Times,serif" font-size="14.00">TableComponent</text>
</g>
<!-- TableComponent&#45;&gt;SbElementModule -->
<g id="edge6" class="edge">
<title>TableComponent&#45;&gt;SbElementModule</title>
<path fill="none" stroke="black" d="M362.18,-122.24C362.18,-137.57 362.18,-157 362.18,-157 362.18,-157 440.47,-157 440.47,-157"/>
<polygon fill="black" stroke="black" points="440.47,-160.5 450.47,-157 440.47,-153.5 440.47,-160.5"/>
</g>
<!-- AlertBoxComponent  -->
<g id="node10" class="node">
<title>AlertBoxComponent </title>
<polygon fill="#fb8072" stroke="black" points="1113.43,-252 976.57,-252 976.57,-216 1113.43,-216 1113.43,-252"/>
<text text-anchor="middle" x="1045" y="-229.8" font-family="Times,serif" font-size="14.00">AlertBoxComponent </text>
</g>
<!-- SbElementModule&#45;&gt;AlertBoxComponent  -->
<g id="edge9" class="edge">
<title>SbElementModule&#45;&gt;AlertBoxComponent </title>
<path fill="none" stroke="black" stroke-dasharray="5,2" d="M571.64,-172C709.6,-172 1035.12,-172 1035.12,-172 1035.12,-172 1035.12,-205.73 1035.12,-205.73"/>
<polygon fill="black" stroke="black" points="1031.63,-205.73 1035.12,-215.73 1038.63,-205.73 1031.63,-205.73"/>
</g>
<!-- AlertComponent  -->
<g id="node11" class="node">
<title>AlertComponent </title>
<polygon fill="#fb8072" stroke="black" points="958.6,-252 845.4,-252 845.4,-216 958.6,-216 958.6,-252"/>
<text text-anchor="middle" x="902" y="-229.8" font-family="Times,serif" font-size="14.00">AlertComponent </text>
</g>
<!-- SbElementModule&#45;&gt;AlertComponent  -->
<g id="edge10" class="edge">
<title>SbElementModule&#45;&gt;AlertComponent </title>
<path fill="none" stroke="black" stroke-dasharray="5,2" d="M571.63,-177C679.52,-177 893.62,-177 893.62,-177 893.62,-177 893.62,-205.96 893.62,-205.96"/>
<polygon fill="black" stroke="black" points="890.13,-205.96 893.62,-215.96 897.13,-205.96 890.13,-205.96"/>
</g>
<!-- CardComponent  -->
<g id="node12" class="node">
<title>CardComponent </title>
<polygon fill="#fb8072" stroke="black" points="827.04,-252 714.96,-252 714.96,-216 827.04,-216 827.04,-252"/>
<text text-anchor="middle" x="771" y="-229.8" font-family="Times,serif" font-size="14.00">CardComponent </text>
</g>
<!-- SbElementModule&#45;&gt;CardComponent  -->
<g id="edge11" class="edge">
<title>SbElementModule&#45;&gt;CardComponent </title>
<path fill="none" stroke="black" stroke-dasharray="5,2" d="M571.75,-182C646.78,-182 764.62,-182 764.62,-182 764.62,-182 764.62,-205.81 764.62,-205.81"/>
<polygon fill="black" stroke="black" points="761.13,-205.81 764.62,-215.81 768.13,-205.81 761.13,-205.81"/>
</g>
<!-- ContainerComponent  -->
<g id="node13" class="node">
<title>ContainerComponent </title>
<polygon fill="#fb8072" stroke="black" points="697.04,-252 556.96,-252 556.96,-216 697.04,-216 697.04,-252"/>
<text text-anchor="middle" x="627" y="-229.8" font-family="Times,serif" font-size="14.00">ContainerComponent </text>
</g>
<!-- SbElementModule&#45;&gt;ContainerComponent  -->
<g id="edge12" class="edge">
<title>SbElementModule&#45;&gt;ContainerComponent </title>
<path fill="none" stroke="black" stroke-dasharray="5,2" d="M564.24,-187.11C564.24,-187.11 564.24,-205.99 564.24,-205.99"/>
<polygon fill="black" stroke="black" points="560.74,-205.99 564.24,-215.99 567.74,-205.99 560.74,-205.99"/>
</g>
<!-- FormModule  -->
<g id="node14" class="node">
<title>FormModule </title>
<polygon fill="#fb8072" stroke="black" points="538.88,-252 445.12,-252 445.12,-216 538.88,-216 538.88,-252"/>
<text text-anchor="middle" x="492" y="-229.8" font-family="Times,serif" font-size="14.00">FormModule </text>
</g>
<!-- SbElementModule&#45;&gt;FormModule  -->
<g id="edge13" class="edge">
<title>SbElementModule&#45;&gt;FormModule </title>
<path fill="none" stroke="black" stroke-dasharray="5,2" d="M494.6,-187.11C494.6,-187.11 494.6,-205.99 494.6,-205.99"/>
<polygon fill="black" stroke="black" points="491.1,-205.99 494.6,-215.99 498.1,-205.99 491.1,-205.99"/>
</g>
<!-- GridComponent  -->
<g id="node15" class="node">
<title>GridComponent </title>
<polygon fill="#fb8072" stroke="black" points="427.49,-252 316.51,-252 316.51,-216 427.49,-216 427.49,-252"/>
<text text-anchor="middle" x="372" y="-229.8" font-family="Times,serif" font-size="14.00">GridComponent </text>
</g>
<!-- SbElementModule&#45;&gt;GridComponent  -->
<g id="edge14" class="edge">
<title>SbElementModule&#45;&gt;GridComponent </title>
<path fill="none" stroke="black" stroke-dasharray="5,2" d="M450.38,-182C431.99,-182 416.55,-182 416.55,-182 416.55,-182 416.55,-205.81 416.55,-205.81"/>
<polygon fill="black" stroke="black" points="413.05,-205.81 416.55,-215.81 420.05,-205.81 413.05,-205.81"/>
</g>
<!-- TableComponent  -->
<g id="node16" class="node">
<title>TableComponent </title>
<polygon fill="#fb8072" stroke="black" points="298.21,-252 181.79,-252 181.79,-216 298.21,-216 298.21,-252"/>
<text text-anchor="middle" x="240" y="-229.8" font-family="Times,serif" font-size="14.00">TableComponent </text>
</g>
<!-- SbElementModule&#45;&gt;TableComponent  -->
<g id="edge15" class="edge">
<title>SbElementModule&#45;&gt;TableComponent </title>
<path fill="none" stroke="black" stroke-dasharray="5,2" d="M450.34,-177C382.61,-177 282.39,-177 282.39,-177 282.39,-177 282.39,-205.96 282.39,-205.96"/>
<polygon fill="black" stroke="black" points="278.89,-205.96 282.39,-215.96 285.89,-205.96 278.89,-205.96"/>
</g>
<!-- ThemeInputDirective  -->
<g id="node17" class="node">
<title>ThemeInputDirective </title>
<polygon fill="#fb8072" stroke="black" points="164.01,-252 23.99,-252 23.99,-216 164.01,-216 164.01,-252"/>
<text text-anchor="middle" x="94" y="-229.8" font-family="Times,serif" font-size="14.00">ThemeInputDirective </text>
</g>
<!-- SbElementModule&#45;&gt;ThemeInputDirective  -->
<g id="edge16" class="edge">
<title>SbElementModule&#45;&gt;ThemeInputDirective </title>
<path fill="none" stroke="black" stroke-dasharray="5,2" d="M450.27,-172C337.12,-172 105.37,-172 105.37,-172 105.37,-172 105.37,-205.73 105.37,-205.73"/>
<polygon fill="black" stroke="black" points="101.87,-205.73 105.37,-215.73 108.87,-205.73 101.87,-205.73"/>
</g>
<!-- BaseModule -->
<g id="node8" class="node">
<title>BaseModule</title>
<polygon fill="#8dd3c7" stroke="black" points="270.26,-122 267.26,-126 246.26,-126 243.26,-122 183.74,-122 183.74,-86 270.26,-86 270.26,-122"/>
<text text-anchor="middle" x="227" y="-99.8" font-family="Times,serif" font-size="14.00">BaseModule</text>
</g>
<!-- BaseModule&#45;&gt;SbElementModule -->
<g id="edge7" class="edge">
<title>BaseModule&#45;&gt;SbElementModule</title>
<path fill="none" stroke="black" d="M227,-122.03C227,-139.06 227,-162 227,-162 227,-162 440.42,-162 440.42,-162"/>
<polygon fill="black" stroke="black" points="440.42,-165.5 450.42,-162 440.42,-158.5 440.42,-165.5"/>
</g>
<!-- FormModule -->
<g id="node9" class="node">
<title>FormModule</title>
<polygon fill="#8dd3c7" stroke="black" points="165.88,-122 162.88,-126 141.88,-126 138.88,-122 76.12,-122 76.12,-86 165.88,-86 165.88,-122"/>
<text text-anchor="middle" x="121" y="-99.8" font-family="Times,serif" font-size="14.00">FormModule</text>
</g>
<!-- FormModule&#45;&gt;SbElementModule -->
<g id="edge8" class="edge">
<title>FormModule&#45;&gt;SbElementModule</title>
<path fill="none" stroke="black" d="M134.69,-122.22C134.69,-140.83 134.69,-167 134.69,-167 134.69,-167 440.12,-167 440.12,-167"/>
<polygon fill="black" stroke="black" points="440.12,-170.5 450.12,-167 440.12,-163.5 440.12,-170.5"/>
</g>
</g>
</svg>
