<?xml version="1.0" encoding="UTF-8" standalone="no"?>
<!DOCTYPE svg PUBLIC "-//W3C//DTD SVG 1.1//EN"
 "http://www.w3.org/Graphics/SVG/1.1/DTD/svg11.dtd">
<!-- Generated by graphviz version 2.47.0 (20210316.0004)
 -->
<!-- Title: dependencies Pages: 1 -->
<svg width="1145pt" height="284pt"
 viewBox="0.00 0.00 1145.00 284.00" xmlns="http://www.w3.org/2000/svg" xmlns:xlink="http://www.w3.org/1999/xlink">
<g id="graph0" class="graph" transform="scale(1 1) rotate(0) translate(4 280)">
<title>dependencies</title>
<polygon fill="white" stroke="transparent" points="-4,4 -4,-280 1141,-280 1141,4 -4,4"/>
<text text-anchor="start" x="547.51" y="-42.4" font-family="sans-serif" font-weight="bold" font-size="14.00">Legend</text>
<polygon fill="#ffffb3" stroke="transparent" points="334.5,-10 334.5,-30 354.5,-30 354.5,-10 334.5,-10"/>
<text text-anchor="start" x="358.13" y="-15.4" font-family="sans-serif" font-size="14.00"> &#160;Declarations</text>
<polygon fill="#8dd3c7" stroke="transparent" points="447.5,-10 447.5,-30 467.5,-30 467.5,-10 447.5,-10"/>
<text text-anchor="start" x="471.23" y="-15.4" font-family="sans-serif" font-size="14.00"> &#160;Module</text>
<polygon fill="#80b1d3" stroke="transparent" points="533.5,-10 533.5,-30 553.5,-30 553.5,-10 533.5,-10"/>
<text text-anchor="start" x="557.28" y="-15.4" font-family="sans-serif" font-size="14.00"> &#160;Bootstrap</text>
<polygon fill="#fdb462" stroke="transparent" points="630.5,-10 630.5,-30 650.5,-30 650.5,-10 630.5,-10"/>
<text text-anchor="start" x="654.17" y="-15.4" font-family="sans-serif" font-size="14.00"> &#160;Providers</text>
<polygon fill="#fb8072" stroke="transparent" points="726.5,-10 726.5,-30 746.5,-30 746.5,-10 726.5,-10"/>
<text text-anchor="start" x="750.23" y="-15.4" font-family="sans-serif" font-size="14.00"> &#160;Exports</text>
<g id="clust1" class="cluster">
<title>cluster_SbElementModule</title>
<polygon fill="none" stroke="black" stroke-dasharray="1,5" points="8,-70 8,-268 1129,-268 1129,-70 8,-70"/>
</g>
<g id="clust9" class="cluster">
<title>cluster_SbElementModule_imports</title>
<polygon fill="none" stroke="black" points="876,-78 876,-130 1086,-130 1086,-78 876,-78"/>
</g>
<g id="clust10" class="cluster">
<title>cluster_SbElementModule_exports</title>
<polygon fill="none" stroke="black" points="16,-208 16,-260 1121,-260 1121,-208 16,-208"/>
</g>
<g id="clust2" class="cluster">
<title>cluster_SbElementModule_declarations</title>
<polygon fill="none" stroke="black" points="52,-78 52,-130 868,-130 868,-78 52,-78"/>
</g>
<!-- AlertBoxComponent -->
<g id="node1" class="node">
<title>AlertBoxComponent</title>
<polygon fill="#ffffb3" stroke="black" points="859.93,-122 726.07,-122 726.07,-86 859.93,-86 859.93,-122"/>
<text text-anchor="middle" x="793" y="-99.8" font-family="Times,serif" font-size="14.00">AlertBoxComponent</text>
</g>
<!-- SbElementModule -->
<g id="node7" class="node">
<title>SbElementModule</title>
<polygon fill="#8dd3c7" stroke="black" points="587.49,-187 584.49,-191 563.49,-191 560.49,-187 466.51,-187 466.51,-151 587.49,-151 587.49,-187"/>
<text text-anchor="middle" x="527" y="-164.8" font-family="Times,serif" font-size="14.00">SbElementModule</text>
</g>
<!-- AlertBoxComponent&#45;&gt;SbElementModule -->
<g id="edge1" class="edge">
<title>AlertBoxComponent&#45;&gt;SbElementModule</title>
<path fill="none" stroke="black" d="M776.65,-122.24C776.65,-137.57 776.65,-157 776.65,-157 776.65,-157 597.75,-157 597.75,-157"/>
<polygon fill="black" stroke="black" points="597.75,-153.5 587.75,-157 597.75,-160.5 597.75,-153.5"/>
</g>
<!-- AlertComponent -->
<g id="node2" class="node">
<title>AlertComponent</title>
<polygon fill="#ffffb3" stroke="black" points="708.1,-122 597.9,-122 597.9,-86 708.1,-86 708.1,-122"/>
<text text-anchor="middle" x="653" y="-99.8" font-family="Times,serif" font-size="14.00">AlertComponent</text>
</g>
<!-- AlertComponent&#45;&gt;SbElementModule -->
<g id="edge2" class="edge">
<title>AlertComponent&#45;&gt;SbElementModule</title>
<path fill="none" stroke="black" d="M597.87,-104C589.66,-104 583.88,-104 583.88,-104 583.88,-104 583.88,-140.89 583.88,-140.89"/>
<polygon fill="black" stroke="black" points="580.38,-140.89 583.88,-150.89 587.38,-140.89 580.38,-140.89"/>
</g>
<!-- CardComponent -->
<g id="node3" class="node">
<title>CardComponent</title>
<polygon fill="#ffffb3" stroke="black" points="580.05,-122 471.95,-122 471.95,-86 580.05,-86 580.05,-122"/>
<text text-anchor="middle" x="526" y="-99.8" font-family="Times,serif" font-size="14.00">CardComponent</text>
</g>
<!-- CardComponent&#45;&gt;SbElementModule -->
<g id="edge3" class="edge">
<title>CardComponent&#45;&gt;SbElementModule</title>
<path fill="none" stroke="black" d="M526,-122.11C526,-122.11 526,-140.99 526,-140.99"/>
<polygon fill="black" stroke="black" points="522.5,-140.99 526,-150.99 529.5,-140.99 522.5,-140.99"/>
</g>
<!-- ContainerComponent -->
<g id="node4" class="node">
<title>ContainerComponent</title>
<polygon fill="#ffffb3" stroke="black" points="453.04,-122 316.96,-122 316.96,-86 453.04,-86 453.04,-122"/>
<text text-anchor="middle" x="385" y="-99.8" font-family="Times,serif" font-size="14.00">ContainerComponent</text>
</g>
<!-- ContainerComponent&#45;&gt;SbElementModule -->
<g id="edge4" class="edge">
<title>ContainerComponent&#45;&gt;SbElementModule</title>
<path fill="none" stroke="black" d="M449.29,-122.24C449.29,-137.57 449.29,-157 449.29,-157 449.29,-157 456.15,-157 456.15,-157"/>
<polygon fill="black" stroke="black" points="456.15,-160.5 466.15,-157 456.15,-153.5 456.15,-160.5"/>
</g>
<!-- GridComponent -->
<g id="node5" class="node">
<title>GridComponent</title>
<polygon fill="#ffffb3" stroke="black" points="298.49,-122 191.51,-122 191.51,-86 298.49,-86 298.49,-122"/>
<text text-anchor="middle" x="245" y="-99.8" font-family="Times,serif" font-size="14.00">GridComponent</text>
</g>
<!-- GridComponent&#45;&gt;SbElementModule -->
<g id="edge5" class="edge">
<title>GridComponent&#45;&gt;SbElementModule</title>
<path fill="none" stroke="black" d="M262.74,-122.03C262.74,-139.06 262.74,-162 262.74,-162 262.74,-162 456.37,-162 456.37,-162"/>
<polygon fill="black" stroke="black" points="456.37,-165.5 466.37,-162 456.37,-158.5 456.37,-165.5"/>
</g>
<!-- TableComponent -->
<g id="node6" class="node">
<title>TableComponent</title>
<polygon fill="#ffffb3" stroke="black" points="173.7,-122 60.3,-122 60.3,-86 173.7,-86 173.7,-122"/>
<text text-anchor="middle" x="117" y="-99.8" font-family="Times,serif" font-size="14.00">TableComponent</text>
</g>
<!-- TableComponent&#45;&gt;SbElementModule -->
<g id="edge6" class="edge">
<title>TableComponent&#45;&gt;SbElementModule</title>
<path fill="none" stroke="black" d="M168.8,-122.22C168.8,-140.83 168.8,-167 168.8,-167 168.8,-167 456.24,-167 456.24,-167"/>
<polygon fill="black" stroke="black" points="456.24,-170.5 466.24,-167 456.24,-163.5 456.24,-170.5"/>
</g>
<!-- AlertBoxComponent  -->
<g id="node10" class="node">
<title>AlertBoxComponent </title>
<polygon fill="#fb8072" stroke="black" points="1113.43,-252 976.57,-252 976.57,-216 1113.43,-216 1113.43,-252"/>
<text text-anchor="middle" x="1045" y="-229.8" font-family="Times,serif" font-size="14.00">AlertBoxComponent </text>
</g>
<!-- SbElementModule&#45;&gt;AlertBoxComponent  -->
<g id="edge9" class="edge">
<title>SbElementModule&#45;&gt;AlertBoxComponent </title>
<path fill="none" stroke="black" stroke-dasharray="5,2" d="M587.7,-172C712.03,-172 984.08,-172 984.08,-172 984.08,-172 984.08,-205.73 984.08,-205.73"/>
<polygon fill="black" stroke="black" points="980.58,-205.73 984.08,-215.73 987.58,-205.73 980.58,-205.73"/>
</g>
<!-- AlertComponent  -->
<g id="node11" class="node">
<title>AlertComponent </title>
<polygon fill="#fb8072" stroke="black" points="958.6,-252 845.4,-252 845.4,-216 958.6,-216 958.6,-252"/>
<text text-anchor="middle" x="902" y="-229.8" font-family="Times,serif" font-size="14.00">AlertComponent </text>
</g>
<!-- SbElementModule&#45;&gt;AlertComponent  -->
<g id="edge10" class="edge">
<title>SbElementModule&#45;&gt;AlertComponent </title>
<path fill="none" stroke="black" stroke-dasharray="5,2" d="M587.83,-177C682.03,-177 852.46,-177 852.46,-177 852.46,-177 852.46,-205.96 852.46,-205.96"/>
<polygon fill="black" stroke="black" points="848.96,-205.96 852.46,-215.96 855.96,-205.96 848.96,-205.96"/>
</g>
<!-- CardComponent  -->
<g id="node12" class="node">
<title>CardComponent </title>
<polygon fill="#fb8072" stroke="black" points="827.04,-252 714.96,-252 714.96,-216 827.04,-216 827.04,-252"/>
<text text-anchor="middle" x="771" y="-229.8" font-family="Times,serif" font-size="14.00">CardComponent </text>
</g>
<!-- SbElementModule&#45;&gt;CardComponent  -->
<g id="edge11" class="edge">
<title>SbElementModule&#45;&gt;CardComponent </title>
<path fill="none" stroke="black" stroke-dasharray="5,2" d="M587.73,-182C644.52,-182 720.63,-182 720.63,-182 720.63,-182 720.63,-205.81 720.63,-205.81"/>
<polygon fill="black" stroke="black" points="717.13,-205.81 720.63,-215.81 724.13,-205.81 717.13,-205.81"/>
</g>
<!-- ContainerComponent  -->
<g id="node13" class="node">
<title>ContainerComponent </title>
<polygon fill="#fb8072" stroke="black" points="697.04,-252 556.96,-252 556.96,-216 697.04,-216 697.04,-252"/>
<text text-anchor="middle" x="627" y="-229.8" font-family="Times,serif" font-size="14.00">ContainerComponent </text>
</g>
<!-- SbElementModule&#45;&gt;ContainerComponent  -->
<g id="edge12" class="edge">
<title>SbElementModule&#45;&gt;ContainerComponent </title>
<path fill="none" stroke="black" stroke-dasharray="5,2" d="M572.24,-187.11C572.24,-187.11 572.24,-205.99 572.24,-205.99"/>
<polygon fill="black" stroke="black" points="568.74,-205.99 572.24,-215.99 575.74,-205.99 568.74,-205.99"/>
</g>
<!-- FormModule  -->
<g id="node14" class="node">
<title>FormModule </title>
<polygon fill="#fb8072" stroke="black" points="538.88,-252 445.12,-252 445.12,-216 538.88,-216 538.88,-252"/>
<text text-anchor="middle" x="492" y="-229.8" font-family="Times,serif" font-size="14.00">FormModule </text>
</g>
<!-- SbElementModule&#45;&gt;FormModule  -->
<g id="edge13" class="edge">
<title>SbElementModule&#45;&gt;FormModule </title>
<path fill="none" stroke="black" stroke-dasharray="5,2" d="M502.6,-187.11C502.6,-187.11 502.6,-205.99 502.6,-205.99"/>
<polygon fill="black" stroke="black" points="499.1,-205.99 502.6,-215.99 506.1,-205.99 499.1,-205.99"/>
</g>
<!-- GridComponent  -->
<g id="node15" class="node">
<title>GridComponent </title>
<polygon fill="#fb8072" stroke="black" points="427.49,-252 316.51,-252 316.51,-216 427.49,-216 427.49,-252"/>
<text text-anchor="middle" x="372" y="-229.8" font-family="Times,serif" font-size="14.00">GridComponent </text>
</g>
<!-- SbElementModule&#45;&gt;GridComponent  -->
<g id="edge14" class="edge">
<title>SbElementModule&#45;&gt;GridComponent </title>
<path fill="none" stroke="black" stroke-dasharray="5,2" d="M466.18,-182C422.76,-182 372,-182 372,-182 372,-182 372,-205.81 372,-205.81"/>
<polygon fill="black" stroke="black" points="368.5,-205.81 372,-215.81 375.5,-205.81 368.5,-205.81"/>
</g>
<!-- TableComponent  -->
<g id="node16" class="node">
<title>TableComponent </title>
<polygon fill="#fb8072" stroke="black" points="298.21,-252 181.79,-252 181.79,-216 298.21,-216 298.21,-252"/>
<text text-anchor="middle" x="240" y="-229.8" font-family="Times,serif" font-size="14.00">TableComponent </text>
</g>
<!-- SbElementModule&#45;&gt;TableComponent  -->
<g id="edge15" class="edge">
<title>SbElementModule&#45;&gt;TableComponent </title>
<path fill="none" stroke="black" stroke-dasharray="5,2" d="M466.31,-177C378.69,-177 227.12,-177 227.12,-177 227.12,-177 227.12,-205.96 227.12,-205.96"/>
<polygon fill="black" stroke="black" points="223.62,-205.96 227.12,-215.96 230.62,-205.96 223.62,-205.96"/>
</g>
<!-- ThemeInputDirective  -->
<g id="node17" class="node">
<title>ThemeInputDirective </title>
<polygon fill="#fb8072" stroke="black" points="164.01,-252 23.99,-252 23.99,-216 164.01,-216 164.01,-252"/>
<text text-anchor="middle" x="94" y="-229.8" font-family="Times,serif" font-size="14.00">ThemeInputDirective </text>
</g>
<!-- SbElementModule&#45;&gt;ThemeInputDirective  -->
<g id="edge16" class="edge">
<title>SbElementModule&#45;&gt;ThemeInputDirective </title>
<path fill="none" stroke="black" stroke-dasharray="5,2" d="M466.24,-172C351.03,-172 112.2,-172 112.2,-172 112.2,-172 112.2,-205.73 112.2,-205.73"/>
<polygon fill="black" stroke="black" points="108.7,-205.73 112.2,-215.73 115.7,-205.73 108.7,-205.73"/>
</g>
<!-- BaseModule -->
<g id="node8" class="node">
<title>BaseModule</title>
<polygon fill="#8dd3c7" stroke="black" points="1078.26,-122 1075.26,-126 1054.26,-126 1051.26,-122 991.74,-122 991.74,-86 1078.26,-86 1078.26,-122"/>
<text text-anchor="middle" x="1035" y="-99.8" font-family="Times,serif" font-size="14.00">BaseModule</text>
</g>
<!-- BaseModule&#45;&gt;SbElementModule -->
<g id="edge7" class="edge">
<title>BaseModule&#45;&gt;SbElementModule</title>
<path fill="none" stroke="black" d="M1035,-122.22C1035,-140.83 1035,-167 1035,-167 1035,-167 597.52,-167 597.52,-167"/>
<polygon fill="black" stroke="black" points="597.52,-163.5 587.52,-167 597.52,-170.5 597.52,-163.5"/>
</g>
<!-- FormModule -->
<g id="node9" class="node">
<title>FormModule</title>
<polygon fill="#8dd3c7" stroke="black" points="973.88,-122 970.88,-126 949.88,-126 946.88,-122 884.12,-122 884.12,-86 973.88,-86 973.88,-122"/>
<text text-anchor="middle" x="929" y="-99.8" font-family="Times,serif" font-size="14.00">FormModule</text>
</g>
<!-- FormModule&#45;&gt;SbElementModule -->
<g id="edge8" class="edge">
<title>FormModule&#45;&gt;SbElementModule</title>
<path fill="none" stroke="black" d="M921.43,-122.03C921.43,-139.06 921.43,-162 921.43,-162 921.43,-162 597.76,-162 597.76,-162"/>
<polygon fill="black" stroke="black" points="597.77,-158.5 587.76,-162 597.76,-165.5 597.77,-158.5"/>
</g>
</g>
</svg>
