<?xml version="1.0" encoding="UTF-8" standalone="no"?>
<!-- Created with Inkscape (http://www.inkscape.org/) -->

<svg
   xmlns:dc="http://purl.org/dc/elements/1.1/"
   xmlns:cc="http://creativecommons.org/ns#"
   xmlns:rdf="http://www.w3.org/1999/02/22-rdf-syntax-ns#"
   xmlns:svg="http://www.w3.org/2000/svg"
   xmlns="http://www.w3.org/2000/svg"
   xmlns:sodipodi="http://sodipodi.sourceforge.net/DTD/sodipodi-0.dtd"
   xmlns:inkscape="http://www.inkscape.org/namespaces/inkscape"
   width="1790.0045"
   height="166.45454"
   viewBox="0 0 473.60536 44.041099"
   version="1.1"
   id="svg8"
   inkscape:version="0.92.5 (2060ec1f9f, 2020-04-08)"
   sodipodi:docname="sb-full-night.svg">
  <defs
     id="defs2" />
  <sodipodi:namedview
     id="base"
     pagecolor="#ffffff"
     bordercolor="#666666"
     borderopacity="1.0"
     inkscape:pageopacity="0.0"
     inkscape:pageshadow="2"
     inkscape:zoom="0.35"
     inkscape:cx="-263.76619"
     inkscape:cy="-227.54546"
     inkscape:document-units="px"
     inkscape:current-layer="layer1"
     showgrid="false"
     units="px"
     inkscape:window-width="2488"
     inkscape:window-height="1376"
     inkscape:window-x="1992"
     inkscape:window-y="27"
     inkscape:window-maximized="1"
     fit-margin-top="10"
     fit-margin-left="10"
     fit-margin-right="10"
     fit-margin-bottom="10" />
  <metadata
     id="metadata5">
    <rdf:RDF>
      <cc:Work
         rdf:about="">
        <dc:format>image/svg+xml</dc:format>
        <dc:type
           rdf:resource="http://purl.org/dc/dcmitype/StillImage" />
        <dc:title></dc:title>
      </cc:Work>
    </rdf:RDF>
  </metadata>
  <g
     inkscape:label="Layer 1"
     inkscape:groupmode="layer"
     id="layer1"
     transform="translate(-31.99053,-58.950578)">
    <g
       aria-label="Severin Buchser"
       style="font-style:italic;font-variant:normal;font-weight:bold;font-stretch:normal;font-size:9.8777771px;line-height:1.25;font-family:'Segoe UI';-inkscape-font-specification:'Segoe UI Bold Italic';letter-spacing:0px;word-spacing:0px;fill:#ffffff;fill-opacity:1;stroke:none;stroke-width:0.26458332"
       id="text817">
      <path
         d="m 56.428409,71.987321 q -0.324716,-2.742046 -2.633807,-4.257387 -2.309091,-1.515341 -5.664489,-1.515341 -2.453409,0 -4.293465,0.79375 -1.822017,0.79375 -2.850285,2.182813 -1.010227,1.389062 -1.010227,3.15696 0,1.479261 0.703551,2.543608 0.721591,1.046307 1.840057,1.749858 1.118466,0.685511 2.345171,1.136506 1.226704,0.432954 2.254971,0.703551 l 3.752273,1.010227 q 1.443182,0.378835 3.211079,1.046307 1.785938,0.667471 3.409517,1.822017 1.64162,1.136505 2.705966,2.922443 1.064347,1.785937 1.064347,4.383665 0,2.994602 -1.56946,5.411931 -1.551421,2.41733 -4.546023,3.842472 -2.976563,1.425139 -7.233949,1.425139 -3.96875,0 -6.873153,-1.280821 -2.886364,-1.280824 -4.546023,-3.571875 -1.641619,-2.291051 -1.858096,-5.321733 h 4.618181 q 0.180398,2.092614 1.407103,3.463637 1.244744,1.352983 3.13892,2.020454 1.912216,0.649432 4.113068,0.649432 2.561648,0 4.600142,-0.82983 2.038494,-0.847869 3.229119,-2.34517 1.190625,-1.515341 1.190625,-3.535795 0,-1.840057 -1.028267,-2.994603 -1.028267,-1.154545 -2.705966,-1.876136 -1.677698,-0.721591 -3.625994,-1.262784 l -4.546022,-1.298864 q -4.329546,-1.244744 -6.855114,-3.553835 -2.525568,-2.309091 -2.525568,-6.043324 0,-3.102841 1.677699,-5.411931 1.695738,-2.327131 4.546022,-3.607955 2.868324,-1.298863 6.40412,-1.298863 3.571875,0 6.349999,1.280823 2.778125,1.262784 4.401705,3.463637 1.641619,2.200852 1.731818,4.997017 z"
         style="font-style:normal;font-variant:normal;font-weight:normal;font-stretch:normal;font-size:50.79999924px;font-family:Inter;-inkscape-font-specification:Inter;letter-spacing:5.95841551px;stroke-width:0.26458332;fill:#ffffff;fill-opacity:1"
         id="path848" />
      <path
         d="m 85.622,100.27368 q -4.004829,0 -6.909233,-1.767894 -2.886363,-1.785937 -4.455824,-4.978977 -1.55142,-3.21108 -1.55142,-7.468466 0,-4.257386 1.55142,-7.504545 1.569461,-3.265199 4.365625,-5.087216 2.814205,-1.840057 6.566477,-1.840057 2.164773,0 4.275427,0.721591 2.110653,0.721591 3.842471,2.345171 1.731818,1.605539 2.760085,4.257386 1.028267,2.651846 1.028267,6.530397 v 1.803978 H 75.736205 V 83.604934 H 92.76575 q 0,-2.34517 -0.938068,-4.185227 -0.920029,-1.840057 -2.633807,-2.904403 -1.695739,-1.064347 -4.00483,-1.064347 -2.543607,0 -4.401704,1.262784 -1.840057,1.244744 -2.832244,3.247159 -0.992188,2.002415 -0.992188,4.293466 v 2.453409 q 0,3.13892 1.082387,5.321733 1.100426,2.164773 3.048721,3.301278 1.948296,1.118466 4.527983,1.118466 1.677699,0 3.030682,-0.469034 1.371023,-0.487074 2.36321,-1.443182 0.992187,-0.974148 1.533381,-2.417329 l 4.113068,1.154545 q -0.649432,2.092614 -2.182813,3.680114 -1.53338,1.56946 -3.788352,2.453409 -2.254971,0.865905 -5.069176,0.865905 z"
         style="font-style:normal;font-variant:normal;font-weight:normal;font-stretch:normal;font-size:50.79999924px;font-family:Inter;-inkscape-font-specification:Inter;letter-spacing:5.95841551px;stroke-width:0.26458332;fill:#ffffff;fill-opacity:1"
         id="path850" />
      <path
         d="m 131.34003,71.987321 -10.24659,27.70909 h -4.32955 L 106.5173,71.987321 h 4.61818 l 7.64887,22.080681 h 0.28863 l 7.64887,-22.080681 z"
         style="font-style:normal;font-variant:normal;font-weight:normal;font-stretch:normal;font-size:50.79999924px;font-family:Inter;-inkscape-font-specification:Inter;letter-spacing:5.95841551px;stroke-width:0.26458332;fill:#ffffff;fill-opacity:1"
         id="path852" />
      <path
         d="m 153.53416,100.27368 q -4.00483,0 -6.90924,-1.767894 -2.88636,-1.785937 -4.45582,-4.978977 -1.55142,-3.21108 -1.55142,-7.468466 0,-4.257386 1.55142,-7.504545 1.56946,-3.265199 4.36562,-5.087216 2.81421,-1.840057 6.56648,-1.840057 2.16477,0 4.27543,0.721591 2.11065,0.721591 3.84247,2.345171 1.73182,1.605539 2.76008,4.257386 1.02827,2.651846 1.02827,6.530397 v 1.803978 h -21.35909 v -3.680114 h 17.02955 q 0,-2.34517 -0.93807,-4.185227 -0.92003,-1.840057 -2.63381,-2.904403 -1.69574,-1.064347 -4.00483,-1.064347 -2.54361,0 -4.4017,1.262784 -1.84006,1.244744 -2.83225,3.247159 -0.99219,2.002415 -0.99219,4.293466 v 2.453409 q 0,3.13892 1.08239,5.321733 1.10043,2.164773 3.04872,3.301278 1.9483,1.118466 4.52799,1.118466 1.67769,0 3.03068,-0.469034 1.37102,-0.487074 2.36321,-1.443182 0.99218,-0.974148 1.53338,-2.417329 l 4.11307,1.154545 q -0.64944,2.092614 -2.18282,3.680114 -1.53338,1.56946 -3.78835,2.453409 -2.25497,0.865905 -5.06917,0.865905 z"
         style="font-style:normal;font-variant:normal;font-weight:normal;font-stretch:normal;font-size:50.79999924px;font-family:Inter;-inkscape-font-specification:Inter;letter-spacing:5.95841551px;stroke-width:0.26458332;fill:#ffffff;fill-opacity:1"
         id="path854" />
      <path
         d="m 177.46016,99.696411 v -27.70909 h 4.11307 v 4.185227 h 0.28863 q 0.75767,-2.056534 2.74205,-3.337358 1.98437,-1.280824 4.47386,-1.280824 0.46904,0 1.17259,0.01804 0.70355,0.01804 1.06434,0.05412 v 4.329546 q -0.21647,-0.05412 -0.99218,-0.162358 -0.75767,-0.126279 -1.60554,-0.126279 -2.02046,0 -3.60796,0.84787 -1.56946,0.829829 -2.48949,2.30909 -0.90198,1.461222 -0.90198,3.337358 v 17.534659 z"
         style="font-style:normal;font-variant:normal;font-weight:normal;font-stretch:normal;font-size:50.79999924px;font-family:Inter;-inkscape-font-specification:Inter;letter-spacing:5.95841551px;stroke-width:0.26458332;fill:#ffffff;fill-opacity:1"
         id="path856" />
      <path
         d="m 202.3242,99.696411 v -27.70909 h 4.25739 v 27.70909 z m 2.16478,-32.327272 q -1.24475,0 -2.14674,-0.847869 -0.88395,-0.84787 -0.88395,-2.038495 0,-1.190625 0.88395,-2.038494 0.90199,-0.847869 2.14674,-0.847869 1.24474,0 2.12869,0.847869 0.90199,0.847869 0.90199,2.038494 0,1.190625 -0.90199,2.038495 -0.88395,0.847869 -2.12869,0.847869 z"
         style="font-style:normal;font-variant:normal;font-weight:normal;font-stretch:normal;font-size:50.79999924px;font-family:Inter;-inkscape-font-specification:Inter;letter-spacing:5.95841551px;stroke-width:0.26458332;fill:#ffffff;fill-opacity:1"
         id="path858" />
      <path
         d="m 224.59053,83.027661 v 16.66875 h -4.25739 v -27.70909 h 4.11307 v 4.329545 h 0.3608 q 0.97415,-2.110653 2.95852,-3.391477 1.98438,-1.298864 5.1233,-1.298864 2.8142,0 4.92485,1.154546 2.11066,1.136505 3.28324,3.463636 1.17259,2.309091 1.17259,5.844886 v 17.606818 h -4.25739 V 82.37823 q 0,-3.265199 -1.69574,-5.087216 -1.69574,-1.840057 -4.65426,-1.840057 -2.03849,0 -3.64403,0.883949 -1.5875,0.883949 -2.50753,2.579687 -0.92003,1.695739 -0.92003,4.113068 z"
         style="font-style:normal;font-variant:normal;font-weight:normal;font-stretch:normal;font-size:50.79999924px;font-family:Inter;-inkscape-font-specification:Inter;letter-spacing:5.95841551px;stroke-width:0.26458332;fill:#ffffff;fill-opacity:1"
         id="path860" />
      <path
         d="M 276.84413,99.696411 V 62.750957 h 12.91648 q 3.86051,0 6.36804,1.334943 2.50753,1.316904 3.73423,3.553835 1.22671,2.218892 1.22671,4.924858 0,2.38125 -0.84787,3.932671 -0.82983,1.55142 -2.20085,2.453409 -1.35299,0.901988 -2.94049,1.334943 v 0.360795 q 1.69574,0.108239 3.40952,1.190625 1.71378,1.082387 2.86832,3.102841 1.15455,2.020455 1.15455,4.942898 0,2.778125 -1.26278,4.997017 -1.26279,2.218892 -3.98679,3.517756 -2.72401,1.298863 -7.08964,1.298863 z m 4.47387,-3.96875 h 8.87556 q 4.38367,0 6.22373,-1.695738 1.85809,-1.713779 1.85809,-4.149148 0,-1.876136 -0.9561,-3.463636 -0.95611,-1.60554 -2.72401,-2.561648 -1.7679,-0.974148 -4.18523,-0.974148 H 281.318 Z m 0,-16.740909 h 8.29829 q 2.02046,0 3.64404,-0.79375 1.64162,-0.79375 2.59772,-2.236931 0.97415,-1.443182 0.97415,-3.391478 0,-2.435369 -1.69574,-4.131108 -1.69574,-1.713778 -5.37585,-1.713778 H 281.318 Z"
         style="font-style:normal;font-variant:normal;font-weight:normal;font-stretch:normal;font-size:50.79999924px;font-family:Inter;-inkscape-font-specification:Inter;letter-spacing:5.95841551px;stroke-width:0.26458332;fill:#ffffff;fill-opacity:1"
         id="path862" />
      <path
         d="M 332.73662,88.367434 V 71.987321 h 4.25739 v 27.70909 h -4.25739 V 95.00607 h -0.28863 q -0.97415,2.110654 -3.03068,3.589915 -2.05654,1.461225 -5.19546,1.461225 -2.59773,0 -4.61818,-1.136509 -2.02046,-1.154546 -3.175,-3.463636 -1.15455,-2.327131 -1.15455,-5.862926 V 71.987321 h 4.25739 v 17.318181 q 0,3.030682 1.69574,4.834659 1.71378,1.803977 4.36562,1.803977 1.5875,0 3.22912,-0.811789 1.65966,-0.81179 2.77813,-2.489489 1.1365,-1.677699 1.1365,-4.275426 z"
         style="font-style:normal;font-variant:normal;font-weight:normal;font-stretch:normal;font-size:50.79999924px;font-family:Inter;-inkscape-font-specification:Inter;letter-spacing:5.95841551px;stroke-width:0.26458332;fill:#ffffff;fill-opacity:1"
         id="path864" />
      <path
         d="m 362.00238,100.27368 q -3.89659,0 -6.7108,-1.840053 -2.8142,-1.840057 -4.32954,-5.069176 -1.51534,-3.229119 -1.51534,-7.378267 0,-4.221307 1.55142,-7.450426 1.56946,-3.247159 4.36562,-5.069176 2.81421,-1.840057 6.56648,-1.840057 2.92244,0 5.26761,1.082387 2.34517,1.082386 3.84247,3.030681 1.4973,1.948296 1.8581,4.546023 h -4.25739 q -0.48707,-1.894176 -2.16477,-3.355398 -1.65966,-1.479261 -4.47386,-1.479261 -2.48949,0 -4.36563,1.298864 -1.85809,1.280823 -2.9044,3.625994 -1.02827,2.32713 -1.02827,5.466051 0,3.211079 1.01023,5.592329 1.02827,2.38125 2.88636,3.698154 1.87614,1.316903 4.40171,1.316903 1.65966,0 3.01264,-0.577273 1.35298,-0.577272 2.29105,-1.659659 0.93807,-1.082386 1.33494,-2.597727 h 4.25739 q -0.3608,2.453409 -1.78594,4.419744 -1.4071,1.948296 -3.73423,3.102841 -2.30909,1.136502 -5.37585,1.136502 z"
         style="font-style:normal;font-variant:normal;font-weight:normal;font-stretch:normal;font-size:50.79999924px;font-family:Inter;-inkscape-font-specification:Inter;letter-spacing:5.95841551px;stroke-width:0.26458332;fill:#ffffff;fill-opacity:1"
         id="path866" />
      <path
         d="m 389.31981,83.027661 v 16.66875 h -4.25739 V 62.750957 h 4.25739 v 13.565909 h 0.3608 q 0.97414,-2.146733 2.92244,-3.409517 1.96633,-1.280824 5.23153,-1.280824 2.83225,0 4.96094,1.136506 2.12869,1.118466 3.30128,3.445596 1.19062,2.309091 1.19062,5.880966 v 17.606818 h -4.25738 V 82.37823 q 0,-3.301279 -1.71378,-5.105256 -1.69574,-1.822017 -4.70838,-1.822017 -2.09262,0 -3.75227,0.883949 -1.64162,0.883949 -2.59773,2.579687 -0.93807,1.695739 -0.93807,4.113068 z"
         style="font-style:normal;font-variant:normal;font-weight:normal;font-stretch:normal;font-size:50.79999924px;font-family:Inter;-inkscape-font-specification:Inter;letter-spacing:5.95841551px;stroke-width:0.26458332;fill:#ffffff;fill-opacity:1"
         id="path868" />
      <path
         d="m 440.66626,78.193002 -3.82443,1.082387 q -0.3608,-0.956108 -1.06435,-1.858097 -0.68551,-0.920028 -1.87614,-1.515341 -1.19062,-0.595312 -3.04872,-0.595312 -2.54361,0 -4.23934,1.172585 -1.6777,1.154545 -1.6777,2.940483 0,1.5875 1.15454,2.507528 1.15455,0.920029 3.60796,1.533381 l 4.11306,1.010227 q 3.7162,0.901989 5.53821,2.760085 1.82202,1.840057 1.82202,4.744461 0,2.381249 -1.37102,4.257386 -1.35298,1.876136 -3.78835,2.958523 -2.43537,1.082382 -5.66449,1.082382 -4.23935,0 -7.01747,-1.840053 -2.77813,-1.840057 -3.51776,-5.375852 l 4.04091,-1.010227 q 0.57727,2.236931 2.18281,3.355397 1.62358,1.118466 4.23935,1.118466 2.97656,0 4.72642,-1.262784 1.7679,-1.280824 1.7679,-3.066761 0,-1.443182 -1.01023,-2.41733 -1.01023,-0.992187 -3.10284,-1.479261 l -4.61818,-1.082386 q -3.80639,-0.901989 -5.59233,-2.796165 -1.7679,-1.912216 -1.7679,-4.78054 0,-2.34517 1.3169,-4.149148 1.33495,-1.803977 3.626,-2.832244 2.30909,-1.028267 5.23153,-1.028267 4.11307,0 6.45824,1.803977 2.36321,1.803978 3.3554,4.7625 z"
         style="font-style:normal;font-variant:normal;font-weight:normal;font-stretch:normal;font-size:50.79999924px;font-family:Inter;-inkscape-font-specification:Inter;letter-spacing:5.95841551px;stroke-width:0.26458332;fill:#ffffff;fill-opacity:1"
         id="path870" />
      <path
         d="m 465.16948,100.27368 q -4.00483,0 -6.90924,-1.767894 -2.88636,-1.785937 -4.45582,-4.978977 -1.55142,-3.21108 -1.55142,-7.468466 0,-4.257386 1.55142,-7.504545 1.56946,-3.265199 4.36563,-5.087216 2.8142,-1.840057 6.56647,-1.840057 2.16478,0 4.27543,0.721591 2.11065,0.721591 3.84247,2.345171 1.73182,1.605539 2.76009,4.257386 1.02826,2.651846 1.02826,6.530397 v 1.803978 h -21.35909 v -3.680114 h 17.02955 q 0,-2.34517 -0.93807,-4.185227 -0.92003,-1.840057 -2.63381,-2.904403 -1.69574,-1.064347 -4.00483,-1.064347 -2.5436,0 -4.4017,1.262784 -1.84006,1.244744 -2.83225,3.247159 -0.99218,2.002415 -0.99218,4.293466 v 2.453409 q 0,3.13892 1.08238,5.321733 1.10043,2.164773 3.04872,3.301278 1.9483,1.118466 4.52799,1.118466 1.6777,0 3.03068,-0.469034 1.37102,-0.487074 2.36321,-1.443182 0.99219,-0.974148 1.53338,-2.417329 l 4.11307,1.154545 q -0.64943,2.092614 -2.18281,3.680114 -1.53338,1.56946 -3.78836,2.453409 -2.25497,0.865905 -5.06917,0.865905 z"
         style="font-style:normal;font-variant:normal;font-weight:normal;font-stretch:normal;font-size:50.79999924px;font-family:Inter;-inkscape-font-specification:Inter;letter-spacing:5.95841551px;stroke-width:0.26458332;fill:#ffffff;fill-opacity:1"
         id="path872" />
      <path
         d="m 489.0955,99.696411 v -27.70909 h 4.11307 v 4.185227 h 0.28864 q 0.75767,-2.056534 2.74204,-3.337358 1.98438,-1.280824 4.47387,-1.280824 0.46903,0 1.17258,0.01804 0.70355,0.01804 1.06435,0.05412 v 4.329546 q -0.21648,-0.05412 -0.99219,-0.162358 -0.75767,-0.126279 -1.60554,-0.126279 -2.02045,0 -3.60795,0.84787 -1.56946,0.829829 -2.48949,2.30909 -0.90199,1.461222 -0.90199,3.337358 v 17.534659 z"
         style="font-style:normal;font-variant:normal;font-weight:normal;font-stretch:normal;font-size:50.79999924px;font-family:Inter;-inkscape-font-specification:Inter;letter-spacing:5.95841551px;stroke-width:0.26458332;fill:#ffffff;fill-opacity:1"
         id="path874" />
    </g>
  </g>
</svg>
